<?xml version="1.0" standalone="no"?><!DOCTYPE svg PUBLIC "-//W3C//DTD SVG 1.1//EN" "http://www.w3.org/Graphics/SVG/1.1/DTD/svg11.dtd"><svg t="1583341164913" class="icon" viewBox="0 0 1024 1024" version="1.1" xmlns="http://www.w3.org/2000/svg" p-id="2556" xmlns:xlink="http://www.w3.org/1999/xlink" width="200" height="200"><defs><style type="text/css"></style></defs><path d="M975.796 690.184L528.044 177.852a21.374 21.374 0 0 0-16.064-7.28c-6.124 0-12 2.656-16.062 7.28L48.182 690.184a21.364 21.364 0 0 0-3.376 22.844 21.384 21.384 0 0 0 19.436 12.5h106.622v277.148c0 11.778 9.562 21.308 21.342 21.308H831.8c11.75 0 21.312-9.532 21.312-21.308V725.528h106.652a21.34 21.34 0 0 0 19.406-12.5 21.234 21.234 0 0 0-3.374-22.844z" fill="#cdcdcd" p-id="2557" data-spm-anchor-id="a313x.7781069.0.i0" class="selected"></path><path d="M789.176 533a21.436 21.436 0 0 1-16.092-7.312l-85.278-97.716a21.31 21.31 0 0 1-5.25-14v-94.184c0-11.75 9.562-21.312 21.312-21.312h85.276c11.782 0 21.344 9.562 21.344 21.312v191.87c0 8.906-5.532 16.844-13.844 19.968a21.596 21.596 0 0 1-7.468 1.374z" fill="#cdcdcd" p-id="2558" data-spm-anchor-id="a313x.7781069.0.i1" class="selected"></path><path d="M511.982 575.624c-11.75 0-21.312 9.532-21.312 21.312v298.458c0 11.782 9.562 21.344 21.312 21.344 11.782 0 21.314-9.562 21.314-21.344V596.938a21.3 21.3 0 0 0-21.314-21.314z" fill="#E6E9ED" p-id="2559"></path><path d="M523.294 728.09c-53.188-33.25-70.75-56.094-74.312-64.688 2.938-1.062 9-2.5 20.376-2.5h127.92c11.78 0 21.342-9.532 21.342-21.312s-9.562-21.312-21.342-21.312h-127.92c-43.874 0-58.062 17.406-62.28 32-8.938 31.218 22.532 69.562 93.624 113.968 53.204 33.246 70.734 56.09 74.296 64.714-2.938 1.062-9 2.5-20.342 2.5h-127.92c-11.812 0-21.344 9.532-21.344 21.308 0 11.782 9.532 21.312 21.344 21.312h127.92c43.842 0 58.058-17.406 62.278-31.996 8.936-31.216-22.562-69.56-93.64-113.994z" fill="#F5F7FA" p-id="2560"></path><path d="M975.796 690.184L528.044 177.852a21.374 21.374 0 0 0-16.064-7.28c-6.124 0-12 2.656-16.062 7.28L48.182 690.184c-5.5 6.312-6.812 15.25-3.344 22.876s11.156 12.468 19.5 12.468l106.654-0.656a21.346 21.346 0 0 0 15.874-7.218l325.118-364.992 325.132 365.648a21.34 21.34 0 0 0 16 7.218h106.652a21.34 21.34 0 0 0 19.406-12.5 21.244 21.244 0 0 0-3.378-22.844z" fill="#656D78" p-id="2561"></path><path d="M810.488 0.014H256.176c-29.406 0-53.312 23.906-53.312 53.28 0 29.406 23.906 53.312 53.312 53.312h554.312c29.376 0 53.282-23.906 53.282-53.312 0-29.374-23.906-53.28-53.282-53.28zM686.212 191.884a64.116 64.116 0 0 0-3.656 21.312c0 35.344 28.624 63.968 63.966 63.968 35.31 0 63.964-28.624 63.964-63.968a63.34 63.34 0 0 0-3.688-21.312h-120.586z" fill="#E6E9ED" p-id="2562"></path><path d="M853.114 106.606h-191.87c-29.376 0-53.312 23.906-53.312 53.31 0 29.374 23.938 53.28 53.312 53.28h191.87c29.376 0 53.31-23.906 53.31-53.28 0-29.406-23.936-53.31-53.31-53.31z" fill="#CCD1D9" p-id="2563"></path></svg>